<?xml version="1.0" encoding="utf-8"?>
<!-- Generator: Adobe Illustrator 16.0.0, SVG Export Plug-In . SVG Version: 6.00 Build 0)  -->
<!DOCTYPE svg PUBLIC "-//W3C//DTD SVG 1.1//EN" "http://www.w3.org/Graphics/SVG/1.1/DTD/svg11.dtd">
<svg version="1.1" id="Layer_1" xmlns="http://www.w3.org/2000/svg" xmlns:xlink="http://www.w3.org/1999/xlink" x="0px" y="0px"
	 width="200px" height="41.75px" viewBox="0 0 200 41.75" enable-background="new 0 0 200 41.75" xml:space="preserve">
<g>
	<g>
		<path fill="#2ABCBC" d="M50.209,26.388c0.952-0.515,2.25,0.242,2.249,1.335c0.114,1.173-1.306,2.043-2.311,1.446
			C49.054,28.638,49.084,26.859,50.209,26.388z"/>
		<g>
			<path fill="#2ABCBC" d="M17.073,8.881c3.727-1.988,8.624-1.374,11.734,1.479c1.561,1.363,2.61,3.22,3.195,5.191
				c2.269-0.222,4.624,0.144,6.603,1.314c2.234,1.248,3.867,3.373,4.75,5.748c0.885,0.238,1.754,0.54,2.601,0.897
				c2.665-0.811,5.728-0.915,8.204,0.502c2.704,1.527,4.031,4.962,3.312,7.939c-0.32,1.293-1.476,2.184-2.72,2.507
				c-2.18,0.578-4.457,0.385-6.685,0.433c-1.227,1.329-2.826,2.379-4.645,2.621c-1.631,0.198-3.277,0.071-4.917,0.103
				c-0.207-2.034,0.658-4.56-0.99-6.162c-1.523-1.53-4.433-0.701-4.938,1.393c-0.265,1.575-0.07,3.181-0.124,4.771
				c-3.728,0-7.458-0.001-11.193,0c-0.223-2.059,0.699-4.67-1.072-6.237c-1.52-1.411-4.269-0.617-4.824,1.377
				c-0.311,1.603-0.083,3.259-0.148,4.88c-3.416,0.169-6.905-1.262-9.005-3.999c-2.792-3.439-2.978-8.684-0.436-12.31
				c1.33-2.014,3.405-3.427,5.672-4.187C11.838,13.681,13.947,10.454,17.073,8.881z M14.842,12.652
				c-1.159,1.392-1.631,3.167-1.922,4.92c-0.122,0.874-1.101,1.05-1.768,1.353c-2.601,0.958-4.615,3.275-5.331,5.938
				c-0.835,2.936,0.017,6.257,2.136,8.447c1.479,1.605,3.579,2.511,5.726,2.79c0.012-1.821-0.257-3.924,1.1-5.378
				c1.668-2.078,5.154-2.104,6.86-0.063c1.399,1.454,1.152,3.582,1.152,5.431c2.711-0.012,5.419-0.008,8.126-0.008
				c0.015-1.772-0.247-3.792,1.01-5.249c1.647-2.199,5.279-2.255,7.001-0.116c1.357,1.451,1.097,3.547,1.097,5.365
				c1.99,0.096,4.104,0.059,5.793-1.155c-1.481-0.043-2.963-0.014-4.446-0.014c0.077-3.608,0.245-7.726,2.978-10.436
				c-0.691-0.19-1.455-0.259-2.06-0.681c-0.39-0.496-0.579-1.114-0.847-1.672c-1.405-3.185-4.895-5.291-8.361-5.076
				c-0.715-0.03-1.577,0.229-2.15-0.332c-0.409-0.485-0.522-1.135-0.76-1.704c-1.078-3.113-4.093-5.395-7.354-5.712
				C19.817,8.94,16.687,10.255,14.842,12.652z M44.501,26.707c-1.24,1.988-1.399,4.398-1.568,6.672
				c3.238-0.044,6.482,0.059,9.718-0.105c1.225-0.129,2.874-0.321,3.333-1.679c0.571-2.369-0.52-5.113-2.693-6.303
				c-1.71-0.964-3.783-0.981-5.669-0.639C46.359,24.88,45.175,25.599,44.501,26.707z"/>
		</g>
	</g>
	<g>
		<g>
			<text transform="matrix(1 0 0 1 63.9722 25.208)" fill="#2ABCBC" font-family="'Giorgio'" font-size="17.5613">TheTechTurtles</text>
		</g>
		<text transform="matrix(1 0 0 1 66.0913 32.5127)" fill="#2ABCBC" font-family="'Giorgio'" font-size="7.551">Where innovation meets creation</text>
	</g>
</g>
</svg>
