<svg id="Layer_1" data-name="Layer 1" xmlns="http://www.w3.org/2000/svg" viewBox="0 0 134 72"><defs><style>.cls-1{fill:#0f1151;}</style></defs><title>convey-stacked-dark</title><path class="cls-1" d="M23.88,52.16a6.43,6.43,0,0,1-6.27,4.7,6.54,6.54,0,1,1-.11-13.08,6.45,6.45,0,0,1,6.38,4.79H21.45A4,4,0,0,0,17.59,46a4,4,0,0,0-3,1.2,4.49,4.49,0,0,0-1.2,3.13,4.17,4.17,0,0,0,4.22,4.34,4.1,4.1,0,0,0,3.86-2.5Z"/><path class="cls-1" d="M31.81,50.3a6.59,6.59,0,1,1,6.59,6.54,6.41,6.41,0,0,1-6.59-6.54Zm2.36,0A4.22,4.22,0,1,0,38.39,46a4.19,4.19,0,0,0-4.22,4.34Z"/><path class="cls-1" d="M53.46,44.15h2.23v1.91a4.26,4.26,0,0,1,4.18-2.27c4,0,5,2.91,5,5.47V56.5H62.48V49.8c0-2.23-.86-3.82-3.27-3.79s-3.38,1.48-3.38,3.61V56.5H53.46Z"/><path class="cls-1" d="M79.77,56.5H77.41L72.69,44.15h2.48l3.43,9.4L82,44.15H84.5Z"/><path class="cls-1" d="M93.7,51.07a4,4,0,0,0,4.16,3.77,3.83,3.83,0,0,0,3.57-2.09h2.45a6.8,6.8,0,0,1-2.5,3.07,6.27,6.27,0,0,1-3.52,1,6.54,6.54,0,1,1,4.54-11.26,6.66,6.66,0,0,1,1.86,5.47Zm8.22-1.84a4,4,0,0,0-4.09-3.43,3.93,3.93,0,0,0-4.09,3.43Z"/><path class="cls-1" d="M115.78,56.14l-4.72-12h2.54l3.41,9,3.45-9H123L116.26,61h-2.52Z"/><path class="cls-1" d="M77.79,19.44l-.43-1.22a10.89,10.89,0,1,0,0,7.35l.43-1.23L75.34,21.9ZM67.1,15.26A6.64,6.64,0,1,0,73,24.89l1.2-1.21,1.2,1.2a8.84,8.84,0,1,1,0-6l-1.2,1.2L73,18.87A6.6,6.6,0,0,0,67.1,15.26Zm4.24,8.4-.15.3a4.59,4.59,0,1,1,0-4.12l.15.29,1.77,1.77Z"/></svg>